<svg xmlns="http://www.w3.org/2000/svg" xmlns:xlink="http://www.w3.org/1999/xlink" viewBox="0,0,256,256" width="60px" height="60px" fill-rule="nonzero"><g fill="#ffffff" fill-rule="nonzero" stroke="none" stroke-width="1" stroke-linecap="butt" stroke-linejoin="miter" stroke-miterlimit="10" stroke-dasharray="" stroke-dashoffset="0" font-family="none" font-weight="none" font-size="none" text-anchor="none" style="mix-blend-mode: normal"><g transform="scale(8.53333,8.53333)"><path d="M14.98633,2c-1.65021,0.00782 -2.98633,1.348 -2.98633,3c0,0.935 0.43158,1.65342 0.89258,2.35742c0.426,0.65 -0.10886,1.50225 -0.88086,1.40625c-2.279,-0.282 -4.58594,-0.71875 -4.58594,-0.71875l-0.00195,0.00195c-0.1392,-0.03068 -0.28129,-0.0464 -0.42383,-0.04687c-1.10457,0 -2,0.89543 -2,2v4.82617c0,0.91 1.00648,1.47542 1.77148,0.98242c0.733,-0.473 1.49572,-0.88792 2.51172,-0.79492c1.255,0.114 2.35472,1.04934 2.63672,2.27734c0.448,1.965 -1.03192,3.70898 -2.91992,3.70898c-0.87,0 -1.55294,-0.37483 -2.21094,-0.79883c-0.773,-0.498 -1.78906,0.04975 -1.78906,0.96875v2.39648c0,1.542 0.895,2.43359 2,2.43359h8h8c1.105,0 2,-0.895 2,-2v-14c0,-1.10457 -0.89543,-2 -2,-2c-0.14189,0.00062 -0.28331,0.01633 -0.42187,0.04688l-0.00391,-0.00195c0,0 -2.30694,0.43675 -4.58594,0.71875c-0.774,0.096 -1.30495,-0.75911 -0.87695,-1.41211c0.507,-0.774 0.977,-1.56848 0.875,-2.64648c-0.118,-1.251 -1.05334,-2.345 -2.27734,-2.625c-0.24562,-0.05625 -0.48691,-0.0812 -0.72266,-0.08008z"></path></g></g></svg>